<svg width="24" height="24" viewBox="0 0 24 24" fill="none" xmlns="http://www.w3.org/2000/svg">
<path fill-rule="evenodd" clip-rule="evenodd" d="M15.4067 20C16.2556 20 16.8338 19.4664 16.8704 18.6185L17.3826 7.67656H18.5755C18.817 7.67656 19 7.48652 19 7.25263C19 7.01142 18.8097 6.82138 18.5755 6.82138H15.1798V5.63728C15.1798 4.61398 14.5139 4 13.4234 4H10.5619C9.47883 4 8.82018 4.61398 8.82018 5.63728V6.82138H5.42446C5.1976 6.82138 5 7.01873 5 7.25263C5 7.48652 5.1976 7.67656 5.42446 7.67656H6.63199L7.14428 18.6185C7.18087 19.4664 7.7517 20 8.60063 20H15.4067ZM14.1699 6.82285H9.83008V5.6826C9.83008 5.23674 10.1301 4.95898 10.6131 4.95898H13.3795C13.8698 4.95898 14.1699 5.23674 14.1699 5.6826V6.82285ZM9.3542 17.5651C9.36151 17.7697 9.50788 17.9086 9.72011 17.9086C9.93966 17.9086 10.086 17.7624 10.0787 17.5651L9.83721 9.37869C9.82989 9.17403 9.68352 9.03516 9.47861 9.03516C9.25906 9.03516 9.11269 9.17403 9.11269 9.386L9.3542 17.5651ZM12.004 17.9086C11.7845 17.9086 11.6308 17.7697 11.6308 17.5651V9.386C11.6308 9.18134 11.7845 9.03516 12.004 9.03516C12.2236 9.03516 12.3773 9.18134 12.3773 9.386V17.5651C12.3773 17.7697 12.2236 17.9086 12.004 17.9086ZM13.9213 17.5656C13.9213 17.7702 14.0603 17.9164 14.2872 17.9164C14.4994 17.9164 14.6385 17.7775 14.6458 17.5729L14.8873 9.3865C14.8946 9.18184 14.7483 9.04297 14.5287 9.04297C14.3238 9.04297 14.1701 9.17454 14.1628 9.3792L13.9213 17.5656Z" fill="#333333"/>
</svg>
