<svg width="12" height="12" viewBox="0 0 12 12" fill="none" xmlns="http://www.w3.org/2000/svg">
<rect width="12" height="12" rx="6" fill="#FF3126"/>
<path d="M6.00002 6.75C5.63088 6.75 5.41994 6.57459 5.40236 6.27099L5.30568 2.76949C5.28811 2.46589 5.57815 2.25 6.00002 2.25C6.40432 2.25 6.71193 2.47264 6.69436 2.77624L6.58889 6.27099C6.5801 6.58133 6.36037 6.75 6.00002 6.75Z" fill="white"/>
<path d="M6 9.75C5.60969 9.75 5.25 9.42016 5.25 9.00393C5.25 8.57984 5.60204 8.25 6 8.25C6.39796 8.25 6.75 8.57199 6.75 9.00393C6.75 9.42801 6.39796 9.75 6 9.75Z" fill="white"/>
</svg>
