<svg width="18" height="18" viewBox="0 0 18 18" fill="none" xmlns="http://www.w3.org/2000/svg">
<path fill-rule="evenodd" clip-rule="evenodd" d="M9 18C13.9706 18 18 13.9706 18 9C18 4.02944 13.9706 0 9 0C4.02944 0 0 4.02944 0 9C0 13.9706 4.02944 18 9 18Z" fill="#FF3126"/>
<path fill-rule="evenodd" clip-rule="evenodd" d="M13.7136 5.97097C14.1788 5.50578 14.1788 4.75157 13.7136 4.28639C13.2484 3.8212 12.4942 3.8212 12.029 4.28639L9 7.31542L5.97097 4.28639C5.50578 3.8212 4.75157 3.8212 4.28639 4.28639C3.8212 4.75157 3.8212 5.50578 4.28639 5.97097L7.31542 9L4.28639 12.029C3.8212 12.4942 3.8212 13.2484 4.28639 13.7136C4.75157 14.1788 5.50578 14.1788 5.97097 13.7136L9 10.6846L12.029 13.7136C12.4942 14.1788 13.2484 14.1788 13.7136 13.7136C14.1788 13.2484 14.1788 12.4942 13.7136 12.029L10.6846 9L13.7136 5.97097Z" fill="white"/>
</svg>
