<svg width="18" height="18" viewBox="0 0 18 18" fill="none" xmlns="http://www.w3.org/2000/svg">
<circle cx="9" cy="9" r="9" fill="#FF8A00"/>
<path d="M9.00233 10.2886C8.32148 10.2886 7.92431 9.90866 7.88649 9.2247L7.73519 5.23493C7.69736 4.50347 8.21746 4 8.99287 4C9.76829 4 10.2978 4.51297 10.26 5.24443L10.0993 9.2057C10.0614 9.90866 9.67372 10.2886 9.00233 10.2886ZM9.00233 13.7369C8.23637 13.7369 7.64062 13.262 7.64062 12.521C7.64062 11.7896 8.22691 11.3051 9.00233 11.3051C9.77774 11.3051 10.3546 11.7896 10.3546 12.521C10.3546 13.262 9.77774 13.7369 9.00233 13.7369Z" fill="white"/>
</svg>
